<mxfile host="app.diagrams.net" modified="2023-06-21T08:00:19.136Z" agent="Mozilla/5.0 (Windows NT 10.0; Win64; x64) AppleWebKit/537.36 (KHTML, like Gecko) Chrome/114.0.0.0 Safari/537.36" etag="6lJZPnB1IC_Bx7GP1KYn" version="21.5.0" type="onedrive">
  <diagram name="Page-1" id="HCjJullHyQwXDXGderbK">
    <mxGraphModel grid="0" page="1" gridSize="10" guides="1" tooltips="1" connect="1" arrows="1" fold="1" pageScale="1" pageWidth="1654" pageHeight="1169" background="#ffffff" math="0" shadow="0">
      <root>
        <mxCell id="0" />
        <mxCell id="1" parent="0" />
        <mxCell id="l3kT8346K-ePLgC5lq8R-29" style="edgeStyle=orthogonalEdgeStyle;rounded=0;orthogonalLoop=1;jettySize=auto;html=1;entryX=0.5;entryY=0;entryDx=0;entryDy=0;" edge="1" parent="1" source="l3kT8346K-ePLgC5lq8R-1" target="l3kT8346K-ePLgC5lq8R-25">
          <mxGeometry relative="1" as="geometry" />
        </mxCell>
        <mxCell id="l3kT8346K-ePLgC5lq8R-40" style="edgeStyle=orthogonalEdgeStyle;rounded=0;orthogonalLoop=1;jettySize=auto;html=1;entryX=0.5;entryY=0;entryDx=0;entryDy=0;fillColor=#a0522d;strokeColor=#6D1F00;" edge="1" parent="1" source="l3kT8346K-ePLgC5lq8R-1" target="l3kT8346K-ePLgC5lq8R-17">
          <mxGeometry relative="1" as="geometry" />
        </mxCell>
        <mxCell id="l3kT8346K-ePLgC5lq8R-41" style="edgeStyle=orthogonalEdgeStyle;rounded=0;orthogonalLoop=1;jettySize=auto;html=1;entryX=0.5;entryY=0;entryDx=0;entryDy=0;" edge="1" parent="1" source="l3kT8346K-ePLgC5lq8R-1" target="l3kT8346K-ePLgC5lq8R-36">
          <mxGeometry relative="1" as="geometry" />
        </mxCell>
        <mxCell id="l3kT8346K-ePLgC5lq8R-79" style="edgeStyle=orthogonalEdgeStyle;rounded=0;orthogonalLoop=1;jettySize=auto;html=1;fontSize=12;" edge="1" parent="1" source="l3kT8346K-ePLgC5lq8R-1" target="l3kT8346K-ePLgC5lq8R-73">
          <mxGeometry relative="1" as="geometry" />
        </mxCell>
        <mxCell id="l3kT8346K-ePLgC5lq8R-92" style="edgeStyle=orthogonalEdgeStyle;rounded=0;orthogonalLoop=1;jettySize=auto;html=1;fontSize=12;" edge="1" parent="1" source="l3kT8346K-ePLgC5lq8R-1" target="l3kT8346K-ePLgC5lq8R-86">
          <mxGeometry relative="1" as="geometry" />
        </mxCell>
        <mxCell id="l3kT8346K-ePLgC5lq8R-97" style="edgeStyle=orthogonalEdgeStyle;rounded=0;orthogonalLoop=1;jettySize=auto;html=1;fontSize=12;" edge="1" parent="1" source="l3kT8346K-ePLgC5lq8R-1" target="l3kT8346K-ePLgC5lq8R-93">
          <mxGeometry relative="1" as="geometry" />
        </mxCell>
        <mxCell id="l3kT8346K-ePLgC5lq8R-111" style="edgeStyle=orthogonalEdgeStyle;rounded=0;orthogonalLoop=1;jettySize=auto;html=1;entryX=0.5;entryY=0;entryDx=0;entryDy=0;fontSize=12;" edge="1" parent="1" source="l3kT8346K-ePLgC5lq8R-1" target="l3kT8346K-ePLgC5lq8R-66">
          <mxGeometry relative="1" as="geometry" />
        </mxCell>
        <mxCell id="l3kT8346K-ePLgC5lq8R-1" value="Book" style="ellipse;whiteSpace=wrap;html=1;aspect=fixed;labelBackgroundColor=none;fillColor=#0050ef;fontColor=#ffffff;strokeColor=#001DBC;fontStyle=1;fontSize=16;rounded=0;" vertex="1" parent="1">
          <mxGeometry x="1060" y="690.14" width="80" height="80" as="geometry" />
        </mxCell>
        <mxCell id="l3kT8346K-ePLgC5lq8R-17" value="Part 1 - Computation for Science and Engineering" style="swimlane;fontStyle=0;childLayout=stackLayout;horizontal=1;startSize=30;horizontalStack=0;resizeParent=1;resizeParentMax=0;resizeLast=0;collapsible=1;marginBottom=0;whiteSpace=wrap;html=1;labelBackgroundColor=none;fillColor=#f8cecc;strokeColor=#b85450;rounded=0;" vertex="1" parent="1">
          <mxGeometry x="430" y="320" width="400" height="180" as="geometry" />
        </mxCell>
        <mxCell id="l3kT8346K-ePLgC5lq8R-18" value="&lt;font color=&quot;#000000&quot;&gt;Introduction and basics of shell scripting&lt;/font&gt;" style="text;strokeColor=#d79b00;fillColor=#ffe6cc;align=left;verticalAlign=middle;spacingLeft=4;spacingRight=4;overflow=hidden;points=[[0,0.5],[1,0.5]];portConstraint=eastwest;rotatable=0;whiteSpace=wrap;html=1;labelBackgroundColor=none;rounded=0;" vertex="1" parent="l3kT8346K-ePLgC5lq8R-17">
          <mxGeometry y="30" width="400" height="30" as="geometry" />
        </mxCell>
        <mxCell id="l3kT8346K-ePLgC5lq8R-24" value="Review of Linear Algebra and its applications" style="text;strokeColor=#d79b00;fillColor=#ffe6cc;align=left;verticalAlign=middle;spacingLeft=4;spacingRight=4;overflow=hidden;points=[[0,0.5],[1,0.5]];portConstraint=eastwest;rotatable=0;whiteSpace=wrap;html=1;labelBackgroundColor=none;rounded=0;" vertex="1" parent="l3kT8346K-ePLgC5lq8R-17">
          <mxGeometry y="60" width="400" height="30" as="geometry" />
        </mxCell>
        <mxCell id="l3kT8346K-ePLgC5lq8R-19" value="Fundamentals of numerical differentiation and integration" style="text;strokeColor=#d79b00;fillColor=#ffe6cc;align=left;verticalAlign=middle;spacingLeft=4;spacingRight=4;overflow=hidden;points=[[0,0.5],[1,0.5]];portConstraint=eastwest;rotatable=0;whiteSpace=wrap;html=1;labelBackgroundColor=none;rounded=0;" vertex="1" parent="l3kT8346K-ePLgC5lq8R-17">
          <mxGeometry y="90" width="400" height="30" as="geometry" />
        </mxCell>
        <mxCell id="l3kT8346K-ePLgC5lq8R-20" value="Introduction to constrained optimization methods" style="text;strokeColor=#ae4132;fillColor=#fad9d5;align=left;verticalAlign=middle;spacingLeft=4;spacingRight=4;overflow=hidden;points=[[0,0.5],[1,0.5]];portConstraint=eastwest;rotatable=0;whiteSpace=wrap;html=1;labelBackgroundColor=none;rounded=0;" vertex="1" parent="l3kT8346K-ePLgC5lq8R-17">
          <mxGeometry y="120" width="400" height="30" as="geometry" />
        </mxCell>
        <mxCell id="l3kT8346K-ePLgC5lq8R-22" value="Practical use of filters and treatment of time-series data" style="text;strokeColor=#ae4132;fillColor=#fad9d5;align=left;verticalAlign=middle;spacingLeft=4;spacingRight=4;overflow=hidden;points=[[0,0.5],[1,0.5]];portConstraint=eastwest;rotatable=0;whiteSpace=wrap;html=1;labelBackgroundColor=none;rounded=0;" vertex="1" parent="l3kT8346K-ePLgC5lq8R-17">
          <mxGeometry y="150" width="400" height="30" as="geometry" />
        </mxCell>
        <mxCell id="l3kT8346K-ePLgC5lq8R-25" value="Part 2 - Thermodynamics and Kinetics for Processes and Materials" style="swimlane;fontStyle=0;childLayout=stackLayout;horizontal=1;startSize=30;horizontalStack=0;resizeParent=1;resizeParentMax=0;resizeLast=0;collapsible=1;marginBottom=0;whiteSpace=wrap;html=1;fillColor=#dae8fc;strokeColor=#6c8ebf;rounded=0;" vertex="1" parent="1">
          <mxGeometry x="240" y="540" width="400" height="300" as="geometry" />
        </mxCell>
        <mxCell id="l3kT8346K-ePLgC5lq8R-26" value="Fundamentals of thermodynamics of processes and materials" style="text;strokeColor=#ae4132;fillColor=#fad9d5;align=left;verticalAlign=middle;spacingLeft=4;spacingRight=4;overflow=hidden;points=[[0,0.5],[1,0.5]];portConstraint=eastwest;rotatable=0;whiteSpace=wrap;html=1;rounded=0;" vertex="1" parent="l3kT8346K-ePLgC5lq8R-25">
          <mxGeometry y="30" width="400" height="30" as="geometry" />
        </mxCell>
        <mxCell id="l3kT8346K-ePLgC5lq8R-27" value="Representation of thermodynamics through CALPHAD approach" style="text;strokeColor=#ae4132;fillColor=#fad9d5;align=left;verticalAlign=middle;spacingLeft=4;spacingRight=4;overflow=hidden;points=[[0,0.5],[1,0.5]];portConstraint=eastwest;rotatable=0;whiteSpace=wrap;html=1;rounded=0;" vertex="1" parent="l3kT8346K-ePLgC5lq8R-25">
          <mxGeometry y="60" width="400" height="30" as="geometry" />
        </mxCell>
        <mxCell id="l3kT8346K-ePLgC5lq8R-28" value="Modeling of ionic and metallic solutions with CALPHAD" style="text;strokeColor=#ae4132;fillColor=#fad9d5;align=left;verticalAlign=middle;spacingLeft=4;spacingRight=4;overflow=hidden;points=[[0,0.5],[1,0.5]];portConstraint=eastwest;rotatable=0;whiteSpace=wrap;html=1;rounded=0;" vertex="1" parent="l3kT8346K-ePLgC5lq8R-25">
          <mxGeometry y="90" width="400" height="30" as="geometry" />
        </mxCell>
        <mxCell id="l3kT8346K-ePLgC5lq8R-30" value="Crystaline phases modeling with sublattice approach" style="text;strokeColor=#ae4132;fillColor=#fad9d5;align=left;verticalAlign=middle;spacingLeft=4;spacingRight=4;overflow=hidden;points=[[0,0.5],[1,0.5]];portConstraint=eastwest;rotatable=0;whiteSpace=wrap;html=1;rounded=0;" vertex="1" parent="l3kT8346K-ePLgC5lq8R-25">
          <mxGeometry y="120" width="400" height="30" as="geometry" />
        </mxCell>
        <mxCell id="l3kT8346K-ePLgC5lq8R-31" value="Third generation CALPHAD and database constitution" style="text;strokeColor=#ae4132;fillColor=#fad9d5;align=left;verticalAlign=middle;spacingLeft=4;spacingRight=4;overflow=hidden;points=[[0,0.5],[1,0.5]];portConstraint=eastwest;rotatable=0;whiteSpace=wrap;html=1;rounded=0;" vertex="1" parent="l3kT8346K-ePLgC5lq8R-25">
          <mxGeometry y="150" width="400" height="30" as="geometry" />
        </mxCell>
        <mxCell id="l3kT8346K-ePLgC5lq8R-33" value="Fundamentals of mass action kinetics and gas combustion" style="text;strokeColor=#ae4132;fillColor=#fad9d5;align=left;verticalAlign=middle;spacingLeft=4;spacingRight=4;overflow=hidden;points=[[0,0.5],[1,0.5]];portConstraint=eastwest;rotatable=0;whiteSpace=wrap;html=1;rounded=0;" vertex="1" parent="l3kT8346K-ePLgC5lq8R-25">
          <mxGeometry y="180" width="400" height="30" as="geometry" />
        </mxCell>
        <mxCell id="l3kT8346K-ePLgC5lq8R-32" value="Large scale mechanisms and their simplification with DRG and CSP" style="text;strokeColor=#ae4132;fillColor=#fad9d5;align=left;verticalAlign=middle;spacingLeft=4;spacingRight=4;overflow=hidden;points=[[0,0.5],[1,0.5]];portConstraint=eastwest;rotatable=0;whiteSpace=wrap;html=1;rounded=0;" vertex="1" parent="l3kT8346K-ePLgC5lq8R-25">
          <mxGeometry y="210" width="400" height="30" as="geometry" />
        </mxCell>
        <mxCell id="l3kT8346K-ePLgC5lq8R-34" value="Arbitrary order kinetics modeling and its uses" style="text;strokeColor=#ae4132;fillColor=#fad9d5;align=left;verticalAlign=middle;spacingLeft=4;spacingRight=4;overflow=hidden;points=[[0,0.5],[1,0.5]];portConstraint=eastwest;rotatable=0;whiteSpace=wrap;html=1;rounded=0;" vertex="1" parent="l3kT8346K-ePLgC5lq8R-25">
          <mxGeometry y="240" width="400" height="30" as="geometry" />
        </mxCell>
        <mxCell id="l3kT8346K-ePLgC5lq8R-35" value="Low-dimensional reactor models and model chaining" style="text;strokeColor=#ae4132;fillColor=#fad9d5;align=left;verticalAlign=middle;spacingLeft=4;spacingRight=4;overflow=hidden;points=[[0,0.5],[1,0.5]];portConstraint=eastwest;rotatable=0;whiteSpace=wrap;html=1;rounded=0;" vertex="1" parent="l3kT8346K-ePLgC5lq8R-25">
          <mxGeometry y="270" width="400" height="30" as="geometry" />
        </mxCell>
        <mxCell id="l3kT8346K-ePLgC5lq8R-36" value="Part 3 - Introduction to Computational Transport Phenomena" style="swimlane;fontStyle=0;childLayout=stackLayout;horizontal=1;startSize=30;horizontalStack=0;resizeParent=1;resizeParentMax=0;resizeLast=0;collapsible=1;marginBottom=0;whiteSpace=wrap;html=1;fillColor=#d5e8d4;strokeColor=#82b366;rounded=0;" vertex="1" parent="1">
          <mxGeometry x="1180" y="500" width="400" height="180" as="geometry" />
        </mxCell>
        <mxCell id="l3kT8346K-ePLgC5lq8R-37" value="Transport equations and Reynolds transport theorem" style="text;strokeColor=#ae4132;fillColor=#fad9d5;align=left;verticalAlign=middle;spacingLeft=4;spacingRight=4;overflow=hidden;points=[[0,0.5],[1,0.5]];portConstraint=eastwest;rotatable=0;whiteSpace=wrap;html=1;rounded=0;" vertex="1" parent="l3kT8346K-ePLgC5lq8R-36">
          <mxGeometry y="30" width="400" height="30" as="geometry" />
        </mxCell>
        <mxCell id="l3kT8346K-ePLgC5lq8R-38" value="Progressive treatment of transport with finite difference methods" style="text;strokeColor=#ae4132;fillColor=#fad9d5;align=left;verticalAlign=middle;spacingLeft=4;spacingRight=4;overflow=hidden;points=[[0,0.5],[1,0.5]];portConstraint=eastwest;rotatable=0;whiteSpace=wrap;html=1;rounded=0;" vertex="1" parent="l3kT8346K-ePLgC5lq8R-36">
          <mxGeometry y="60" width="400" height="30" as="geometry" />
        </mxCell>
        <mxCell id="l3kT8346K-ePLgC5lq8R-39" value="Introduction to finite volume method applied to transport" style="text;strokeColor=#ae4132;fillColor=#fad9d5;align=left;verticalAlign=middle;spacingLeft=4;spacingRight=4;overflow=hidden;points=[[0,0.5],[1,0.5]];portConstraint=eastwest;rotatable=0;whiteSpace=wrap;html=1;rounded=0;" vertex="1" parent="l3kT8346K-ePLgC5lq8R-36">
          <mxGeometry y="90" width="400" height="30" as="geometry" />
        </mxCell>
        <mxCell id="l3kT8346K-ePLgC5lq8R-56" value="Solving transport problems with OpenFOAM" style="text;strokeColor=#ae4132;fillColor=#fad9d5;align=left;verticalAlign=middle;spacingLeft=4;spacingRight=4;overflow=hidden;points=[[0,0.5],[1,0.5]];portConstraint=eastwest;rotatable=0;whiteSpace=wrap;html=1;rounded=0;" vertex="1" parent="l3kT8346K-ePLgC5lq8R-36">
          <mxGeometry y="120" width="400" height="30" as="geometry" />
        </mxCell>
        <mxCell id="l3kT8346K-ePLgC5lq8R-65" value="Smooth particle hydrodynamics and other methods" style="text;strokeColor=#ae4132;fillColor=#fad9d5;align=left;verticalAlign=middle;spacingLeft=4;spacingRight=4;overflow=hidden;points=[[0,0.5],[1,0.5]];portConstraint=eastwest;rotatable=0;whiteSpace=wrap;html=1;rounded=0;" vertex="1" parent="l3kT8346K-ePLgC5lq8R-36">
          <mxGeometry y="150" width="400" height="30" as="geometry" />
        </mxCell>
        <mxCell id="l3kT8346K-ePLgC5lq8R-42" value="Topics" style="swimlane;fontStyle=0;childLayout=stackLayout;horizontal=1;startSize=30;horizontalStack=0;resizeParent=1;resizeParentMax=0;resizeLast=0;collapsible=1;marginBottom=0;whiteSpace=wrap;html=1;fillColor=#d5e8d4;strokeColor=#82b366;rounded=0;" vertex="1" parent="1">
          <mxGeometry x="1620" y="210" width="290" height="180" as="geometry" />
        </mxCell>
        <mxCell id="l3kT8346K-ePLgC5lq8R-43" value="Advection equation" style="text;strokeColor=#56517e;fillColor=#d0cee2;align=left;verticalAlign=middle;spacingLeft=4;spacingRight=4;overflow=hidden;points=[[0,0.5],[1,0.5]];portConstraint=eastwest;rotatable=0;whiteSpace=wrap;html=1;rounded=0;" vertex="1" parent="l3kT8346K-ePLgC5lq8R-42">
          <mxGeometry y="30" width="290" height="30" as="geometry" />
        </mxCell>
        <mxCell id="l3kT8346K-ePLgC5lq8R-45" value="Diffusion equation" style="text;strokeColor=#b46504;fillColor=#fad7ac;align=left;verticalAlign=middle;spacingLeft=4;spacingRight=4;overflow=hidden;points=[[0,0.5],[1,0.5]];portConstraint=eastwest;rotatable=0;whiteSpace=wrap;html=1;rounded=0;" vertex="1" parent="l3kT8346K-ePLgC5lq8R-42">
          <mxGeometry y="60" width="290" height="30" as="geometry" />
        </mxCell>
        <mxCell id="l3kT8346K-ePLgC5lq8R-47" value="Simultaneous advection-diffusion" style="text;strokeColor=#b46504;fillColor=#fad7ac;align=left;verticalAlign=middle;spacingLeft=4;spacingRight=4;overflow=hidden;points=[[0,0.5],[1,0.5]];portConstraint=eastwest;rotatable=0;whiteSpace=wrap;html=1;rounded=0;" vertex="1" parent="l3kT8346K-ePLgC5lq8R-42">
          <mxGeometry y="90" width="290" height="30" as="geometry" />
        </mxCell>
        <mxCell id="l3kT8346K-ePLgC5lq8R-48" value="Poisson&#39;s equation" style="text;strokeColor=#b46504;fillColor=#fad7ac;align=left;verticalAlign=middle;spacingLeft=4;spacingRight=4;overflow=hidden;points=[[0,0.5],[1,0.5]];portConstraint=eastwest;rotatable=0;whiteSpace=wrap;html=1;rounded=0;" vertex="1" parent="l3kT8346K-ePLgC5lq8R-42">
          <mxGeometry y="120" width="290" height="30" as="geometry" />
        </mxCell>
        <mxCell id="l3kT8346K-ePLgC5lq8R-49" value="Navier-Stokes equation" style="text;strokeColor=#b46504;fillColor=#fad7ac;align=left;verticalAlign=middle;spacingLeft=4;spacingRight=4;overflow=hidden;points=[[0,0.5],[1,0.5]];portConstraint=eastwest;rotatable=0;whiteSpace=wrap;html=1;rounded=0;" vertex="1" parent="l3kT8346K-ePLgC5lq8R-42">
          <mxGeometry y="150" width="290" height="30" as="geometry" />
        </mxCell>
        <mxCell id="l3kT8346K-ePLgC5lq8R-46" style="edgeStyle=orthogonalEdgeStyle;rounded=0;orthogonalLoop=1;jettySize=auto;html=1;entryX=0.5;entryY=0;entryDx=0;entryDy=0;" edge="1" parent="1" source="l3kT8346K-ePLgC5lq8R-38" target="l3kT8346K-ePLgC5lq8R-42">
          <mxGeometry relative="1" as="geometry" />
        </mxCell>
        <mxCell id="l3kT8346K-ePLgC5lq8R-51" value="Topics" style="swimlane;fontStyle=0;childLayout=stackLayout;horizontal=1;startSize=30;horizontalStack=0;resizeParent=1;resizeParentMax=0;resizeLast=0;collapsible=1;marginBottom=0;whiteSpace=wrap;html=1;fillColor=#d5e8d4;strokeColor=#82b366;rounded=0;" vertex="1" parent="1">
          <mxGeometry x="1690" y="460" width="290" height="150" as="geometry" />
        </mxCell>
        <mxCell id="l3kT8346K-ePLgC5lq8R-52" value="Green-Gauss theorem in multiple dimensions" style="text;strokeColor=#ae4132;fillColor=#fad9d5;align=left;verticalAlign=middle;spacingLeft=4;spacingRight=4;overflow=hidden;points=[[0,0.5],[1,0.5]];portConstraint=eastwest;rotatable=0;whiteSpace=wrap;html=1;rounded=0;" vertex="1" parent="l3kT8346K-ePLgC5lq8R-51">
          <mxGeometry y="30" width="290" height="30" as="geometry" />
        </mxCell>
        <mxCell id="l3kT8346K-ePLgC5lq8R-53" value="From finite differences to finite volume discretization" style="text;strokeColor=#ae4132;fillColor=#fad9d5;align=left;verticalAlign=middle;spacingLeft=4;spacingRight=4;overflow=hidden;points=[[0,0.5],[1,0.5]];portConstraint=eastwest;rotatable=0;whiteSpace=wrap;html=1;rounded=0;" vertex="1" parent="l3kT8346K-ePLgC5lq8R-51">
          <mxGeometry y="60" width="290" height="30" as="geometry" />
        </mxCell>
        <mxCell id="l3kT8346K-ePLgC5lq8R-54" value="Handling of non-linearities and coupling" style="text;strokeColor=#ae4132;fillColor=#fad9d5;align=left;verticalAlign=middle;spacingLeft=4;spacingRight=4;overflow=hidden;points=[[0,0.5],[1,0.5]];portConstraint=eastwest;rotatable=0;whiteSpace=wrap;html=1;rounded=0;" vertex="1" parent="l3kT8346K-ePLgC5lq8R-51">
          <mxGeometry y="90" width="290" height="30" as="geometry" />
        </mxCell>
        <mxCell id="l3kT8346K-ePLgC5lq8R-57" value="TODO ????" style="text;strokeColor=#b85450;fillColor=#f8cecc;align=left;verticalAlign=middle;spacingLeft=4;spacingRight=4;overflow=hidden;points=[[0,0.5],[1,0.5]];portConstraint=eastwest;rotatable=0;whiteSpace=wrap;html=1;rounded=0;" vertex="1" parent="l3kT8346K-ePLgC5lq8R-51">
          <mxGeometry y="120" width="290" height="30" as="geometry" />
        </mxCell>
        <mxCell id="l3kT8346K-ePLgC5lq8R-55" style="edgeStyle=orthogonalEdgeStyle;rounded=0;orthogonalLoop=1;jettySize=auto;html=1;entryX=0.5;entryY=0;entryDx=0;entryDy=0;" edge="1" parent="1" source="l3kT8346K-ePLgC5lq8R-39" target="l3kT8346K-ePLgC5lq8R-51">
          <mxGeometry relative="1" as="geometry" />
        </mxCell>
        <mxCell id="l3kT8346K-ePLgC5lq8R-58" value="Topics" style="swimlane;fontStyle=0;childLayout=stackLayout;horizontal=1;startSize=30;horizontalStack=0;resizeParent=1;resizeParentMax=0;resizeLast=0;collapsible=1;marginBottom=0;whiteSpace=wrap;html=1;fillColor=#d5e8d4;strokeColor=#82b366;rounded=0;" vertex="1" parent="1">
          <mxGeometry x="1600" y="660" width="290" height="180" as="geometry" />
        </mxCell>
        <mxCell id="l3kT8346K-ePLgC5lq8R-59" value="The basics of OpenFOAM for fluid flow" style="text;strokeColor=#ae4132;fillColor=#fad9d5;align=left;verticalAlign=middle;spacingLeft=4;spacingRight=4;overflow=hidden;points=[[0,0.5],[1,0.5]];portConstraint=eastwest;rotatable=0;whiteSpace=wrap;html=1;rounded=0;" vertex="1" parent="l3kT8346K-ePLgC5lq8R-58">
          <mxGeometry y="30" width="290" height="30" as="geometry" />
        </mxCell>
        <mxCell id="l3kT8346K-ePLgC5lq8R-60" value="Conjugate heat transfer simulation" style="text;strokeColor=#ae4132;fillColor=#fad9d5;align=left;verticalAlign=middle;spacingLeft=4;spacingRight=4;overflow=hidden;points=[[0,0.5],[1,0.5]];portConstraint=eastwest;rotatable=0;whiteSpace=wrap;html=1;rounded=0;" vertex="1" parent="l3kT8346K-ePLgC5lq8R-58">
          <mxGeometry y="60" width="290" height="30" as="geometry" />
        </mxCell>
        <mxCell id="l3kT8346K-ePLgC5lq8R-61" value="Combustion simulation in OpenFOAM" style="text;strokeColor=#ae4132;fillColor=#fad9d5;align=left;verticalAlign=middle;spacingLeft=4;spacingRight=4;overflow=hidden;points=[[0,0.5],[1,0.5]];portConstraint=eastwest;rotatable=0;whiteSpace=wrap;html=1;rounded=0;" vertex="1" parent="l3kT8346K-ePLgC5lq8R-58">
          <mxGeometry y="90" width="290" height="30" as="geometry" />
        </mxCell>
        <mxCell id="l3kT8346K-ePLgC5lq8R-62" value="Multiphase models in practice" style="text;strokeColor=#ae4132;fillColor=#fad9d5;align=left;verticalAlign=middle;spacingLeft=4;spacingRight=4;overflow=hidden;points=[[0,0.5],[1,0.5]];portConstraint=eastwest;rotatable=0;whiteSpace=wrap;html=1;rounded=0;" vertex="1" parent="l3kT8346K-ePLgC5lq8R-58">
          <mxGeometry y="120" width="290" height="30" as="geometry" />
        </mxCell>
        <mxCell id="l3kT8346K-ePLgC5lq8R-63" value="Creating a custom OpenFOAM solver" style="text;strokeColor=#ae4132;fillColor=#fad9d5;align=left;verticalAlign=middle;spacingLeft=4;spacingRight=4;overflow=hidden;points=[[0,0.5],[1,0.5]];portConstraint=eastwest;rotatable=0;whiteSpace=wrap;html=1;rounded=0;" vertex="1" parent="l3kT8346K-ePLgC5lq8R-58">
          <mxGeometry y="150" width="290" height="30" as="geometry" />
        </mxCell>
        <mxCell id="l3kT8346K-ePLgC5lq8R-64" style="edgeStyle=orthogonalEdgeStyle;rounded=0;orthogonalLoop=1;jettySize=auto;html=1;exitX=1;exitY=0.5;exitDx=0;exitDy=0;entryX=0.5;entryY=0;entryDx=0;entryDy=0;" edge="1" parent="1" source="l3kT8346K-ePLgC5lq8R-56" target="l3kT8346K-ePLgC5lq8R-58">
          <mxGeometry relative="1" as="geometry" />
        </mxCell>
        <mxCell id="l3kT8346K-ePLgC5lq8R-66" value="&lt;font style=&quot;font-size: 12px;&quot;&gt;Part 4 - Topics of Technical Data Science &amp;amp; Machine Learning&lt;/font&gt;" style="swimlane;fontStyle=0;childLayout=stackLayout;horizontal=1;startSize=30;horizontalStack=0;resizeParent=1;resizeParentMax=0;resizeLast=0;collapsible=1;marginBottom=0;whiteSpace=wrap;html=1;fontSize=16;fillColor=#ffe6cc;strokeColor=#d79b00;rounded=0;" vertex="1" parent="1">
          <mxGeometry x="480" y="875" width="400" height="180" as="geometry" />
        </mxCell>
        <mxCell id="l3kT8346K-ePLgC5lq8R-67" value="Introduction to databases and exploratory data analysis" style="text;strokeColor=none;fillColor=default;align=left;verticalAlign=middle;spacingLeft=4;spacingRight=4;overflow=hidden;points=[[0,0.5],[1,0.5]];portConstraint=eastwest;rotatable=0;whiteSpace=wrap;html=1;fontSize=12;rounded=0;" vertex="1" parent="l3kT8346K-ePLgC5lq8R-66">
          <mxGeometry y="30" width="400" height="30" as="geometry" />
        </mxCell>
        <mxCell id="l3kT8346K-ePLgC5lq8R-68" value="Classical regression methods in theory and practice" style="text;strokeColor=none;fillColor=default;align=left;verticalAlign=middle;spacingLeft=4;spacingRight=4;overflow=hidden;points=[[0,0.5],[1,0.5]];portConstraint=eastwest;rotatable=0;whiteSpace=wrap;html=1;fontSize=12;rounded=0;" vertex="1" parent="l3kT8346K-ePLgC5lq8R-66">
          <mxGeometry y="60" width="400" height="30" as="geometry" />
        </mxCell>
        <mxCell id="l3kT8346K-ePLgC5lq8R-69" value="Tree and gradient-boosting based learning algorithms" style="text;strokeColor=none;fillColor=default;align=left;verticalAlign=middle;spacingLeft=4;spacingRight=4;overflow=hidden;points=[[0,0.5],[1,0.5]];portConstraint=eastwest;rotatable=0;whiteSpace=wrap;html=1;fontSize=12;rounded=0;" vertex="1" parent="l3kT8346K-ePLgC5lq8R-66">
          <mxGeometry y="90" width="400" height="30" as="geometry" />
        </mxCell>
        <mxCell id="l3kT8346K-ePLgC5lq8R-71" value="General functional approximation and neural networks" style="text;strokeColor=none;fillColor=default;align=left;verticalAlign=middle;spacingLeft=4;spacingRight=4;overflow=hidden;points=[[0,0.5],[1,0.5]];portConstraint=eastwest;rotatable=0;whiteSpace=wrap;html=1;fontSize=12;rounded=0;" vertex="1" parent="l3kT8346K-ePLgC5lq8R-66">
          <mxGeometry y="120" width="400" height="30" as="geometry" />
        </mxCell>
        <mxCell id="l3kT8346K-ePLgC5lq8R-72" value="Language models and their applicability in science" style="text;strokeColor=none;fillColor=default;align=left;verticalAlign=middle;spacingLeft=4;spacingRight=4;overflow=hidden;points=[[0,0.5],[1,0.5]];portConstraint=eastwest;rotatable=0;whiteSpace=wrap;html=1;fontSize=12;rounded=0;" vertex="1" parent="l3kT8346K-ePLgC5lq8R-66">
          <mxGeometry y="150" width="400" height="30" as="geometry" />
        </mxCell>
        <mxCell id="l3kT8346K-ePLgC5lq8R-73" value="Part 5 - Science and Engineering Study Cases" style="swimlane;fontStyle=0;childLayout=stackLayout;horizontal=1;startSize=30;horizontalStack=0;resizeParent=1;resizeParentMax=0;resizeLast=0;collapsible=1;marginBottom=0;whiteSpace=wrap;html=1;fontSize=12;fillColor=#e1d5e7;strokeColor=#9673a6;rounded=0;" vertex="1" parent="1">
          <mxGeometry x="1350" y="860" width="400" height="360" as="geometry" />
        </mxCell>
        <mxCell id="l3kT8346K-ePLgC5lq8R-74" value="Gas carbonitriding of steel in 1D and generalization with OpenFOAM" style="text;strokeColor=#ae4132;fillColor=#fad9d5;align=left;verticalAlign=middle;spacingLeft=4;spacingRight=4;overflow=hidden;points=[[0,0.5],[1,0.5]];portConstraint=eastwest;rotatable=0;whiteSpace=wrap;html=1;fontSize=12;rounded=0;" vertex="1" parent="l3kT8346K-ePLgC5lq8R-73">
          <mxGeometry y="30" width="400" height="30" as="geometry" />
        </mxCell>
        <mxCell id="l3kT8346K-ePLgC5lq8R-75" value="Simulation of hydrocarbon pyrolysis applied to materials processing" style="text;strokeColor=#ae4132;fillColor=#fad9d5;align=left;verticalAlign=middle;spacingLeft=4;spacingRight=4;overflow=hidden;points=[[0,0.5],[1,0.5]];portConstraint=eastwest;rotatable=0;whiteSpace=wrap;html=1;fontSize=12;rounded=0;" vertex="1" parent="l3kT8346K-ePLgC5lq8R-73">
          <mxGeometry y="60" width="400" height="30" as="geometry" />
        </mxCell>
        <mxCell id="l3kT8346K-ePLgC5lq8R-76" value="Hydrogen and methane flame simulations with Cantera and OpenFOAM" style="text;strokeColor=#ae4132;fillColor=#fad9d5;align=left;verticalAlign=middle;spacingLeft=4;spacingRight=4;overflow=hidden;points=[[0,0.5],[1,0.5]];portConstraint=eastwest;rotatable=0;whiteSpace=wrap;html=1;fontSize=12;rounded=0;" vertex="1" parent="l3kT8346K-ePLgC5lq8R-73">
          <mxGeometry y="90" width="400" height="30" as="geometry" />
        </mxCell>
        <mxCell id="l3kT8346K-ePLgC5lq8R-119" value="Multicomponent droplet combustion model" style="text;strokeColor=#d79b00;fillColor=#ffe6cc;align=left;verticalAlign=middle;spacingLeft=4;spacingRight=4;overflow=hidden;points=[[0,0.5],[1,0.5]];portConstraint=eastwest;rotatable=0;whiteSpace=wrap;html=1;fontSize=12;rounded=0;" vertex="1" parent="l3kT8346K-ePLgC5lq8R-73">
          <mxGeometry y="120" width="400" height="30" as="geometry" />
        </mxCell>
        <mxCell id="l3kT8346K-ePLgC5lq8R-78" value="Hands-on CALPHAD with solution of Fe-C pseudo-equilibrium" style="text;strokeColor=#ae4132;fillColor=#fad9d5;align=left;verticalAlign=middle;spacingLeft=4;spacingRight=4;overflow=hidden;points=[[0,0.5],[1,0.5]];portConstraint=eastwest;rotatable=0;whiteSpace=wrap;html=1;fontSize=12;rounded=0;" vertex="1" parent="l3kT8346K-ePLgC5lq8R-73">
          <mxGeometry y="150" width="400" height="30" as="geometry" />
        </mxCell>
        <mxCell id="l3kT8346K-ePLgC5lq8R-77" value="Coupled ODE&#39;s for the simulation of oxide growth over iron" style="text;strokeColor=#ae4132;fillColor=#fad9d5;align=left;verticalAlign=middle;spacingLeft=4;spacingRight=4;overflow=hidden;points=[[0,0.5],[1,0.5]];portConstraint=eastwest;rotatable=0;whiteSpace=wrap;html=1;fontSize=12;rounded=0;" vertex="1" parent="l3kT8346K-ePLgC5lq8R-73">
          <mxGeometry y="180" width="400" height="30" as="geometry" />
        </mxCell>
        <mxCell id="l3kT8346K-ePLgC5lq8R-84" value="The model of a cement rotary kiln in practice" style="text;strokeColor=#ae4132;fillColor=#fad9d5;align=left;verticalAlign=middle;spacingLeft=4;spacingRight=4;overflow=hidden;points=[[0,0.5],[1,0.5]];portConstraint=eastwest;rotatable=0;whiteSpace=wrap;html=1;fontSize=12;rounded=0;" vertex="1" parent="l3kT8346K-ePLgC5lq8R-73">
          <mxGeometry y="210" width="400" height="30" as="geometry" />
        </mxCell>
        <mxCell id="l3kT8346K-ePLgC5lq8R-82" value="From experiment to modeling cement hydration kinetics" style="text;strokeColor=#ae4132;fillColor=#fad9d5;align=left;verticalAlign=middle;spacingLeft=4;spacingRight=4;overflow=hidden;points=[[0,0.5],[1,0.5]];portConstraint=eastwest;rotatable=0;whiteSpace=wrap;html=1;fontSize=12;rounded=0;" vertex="1" parent="l3kT8346K-ePLgC5lq8R-73">
          <mxGeometry y="240" width="400" height="30" as="geometry" />
        </mxCell>
        <mxCell id="l3kT8346K-ePLgC5lq8R-81" value="Chemical reactor optimization with model predictive control" style="text;strokeColor=#ae4132;fillColor=#fad9d5;align=left;verticalAlign=middle;spacingLeft=4;spacingRight=4;overflow=hidden;points=[[0,0.5],[1,0.5]];portConstraint=eastwest;rotatable=0;whiteSpace=wrap;html=1;fontSize=12;rounded=0;" vertex="1" parent="l3kT8346K-ePLgC5lq8R-73">
          <mxGeometry y="270" width="400" height="30" as="geometry" />
        </mxCell>
        <mxCell id="l3kT8346K-ePLgC5lq8R-83" value="Machine learning for flue gas radiative properties prediction" style="text;strokeColor=#ae4132;fillColor=#fad9d5;align=left;verticalAlign=middle;spacingLeft=4;spacingRight=4;overflow=hidden;points=[[0,0.5],[1,0.5]];portConstraint=eastwest;rotatable=0;whiteSpace=wrap;html=1;fontSize=12;rounded=0;" vertex="1" parent="l3kT8346K-ePLgC5lq8R-73">
          <mxGeometry y="300" width="400" height="30" as="geometry" />
        </mxCell>
        <mxCell id="l3kT8346K-ePLgC5lq8R-85" value="Pore quantification in sintered materials" style="text;strokeColor=#ae4132;fillColor=#fad9d5;align=left;verticalAlign=middle;spacingLeft=4;spacingRight=4;overflow=hidden;points=[[0,0.5],[1,0.5]];portConstraint=eastwest;rotatable=0;whiteSpace=wrap;html=1;fontSize=12;rounded=0;" vertex="1" parent="l3kT8346K-ePLgC5lq8R-73">
          <mxGeometry y="330" width="400" height="30" as="geometry" />
        </mxCell>
        <mxCell id="l3kT8346K-ePLgC5lq8R-86" value="Annexes" style="swimlane;fontStyle=0;childLayout=stackLayout;horizontal=1;startSize=30;horizontalStack=0;resizeParent=1;resizeParentMax=0;resizeLast=0;collapsible=1;marginBottom=0;whiteSpace=wrap;html=1;fontSize=12;fillColor=#fff2cc;strokeColor=#d6b656;rounded=0;" vertex="1" parent="1">
          <mxGeometry x="900" y="830" width="400" height="180" as="geometry" />
        </mxCell>
        <mxCell id="l3kT8346K-ePLgC5lq8R-87" value="Creating a numerical working environment" style="text;strokeColor=#b46504;fillColor=#fad7ac;align=left;verticalAlign=middle;spacingLeft=4;spacingRight=4;overflow=hidden;points=[[0,0.5],[1,0.5]];portConstraint=eastwest;rotatable=0;whiteSpace=wrap;html=1;fontSize=12;rounded=0;" vertex="1" parent="l3kT8346K-ePLgC5lq8R-86">
          <mxGeometry y="30" width="400" height="30" as="geometry" />
        </mxCell>
        <mxCell id="l3kT8346K-ePLgC5lq8R-112" value="Open source software and community" style="text;strokeColor=#b46504;fillColor=#fad7ac;align=left;verticalAlign=middle;spacingLeft=4;spacingRight=4;overflow=hidden;points=[[0,0.5],[1,0.5]];portConstraint=eastwest;rotatable=0;whiteSpace=wrap;html=1;fontSize=12;rounded=0;" vertex="1" parent="l3kT8346K-ePLgC5lq8R-86">
          <mxGeometry y="60" width="400" height="30" as="geometry" />
        </mxCell>
        <mxCell id="l3kT8346K-ePLgC5lq8R-88" value="Introduction to Python" style="text;strokeColor=#b46504;fillColor=#fad7ac;align=left;verticalAlign=middle;spacingLeft=4;spacingRight=4;overflow=hidden;points=[[0,0.5],[1,0.5]];portConstraint=eastwest;rotatable=0;whiteSpace=wrap;html=1;fontSize=12;rounded=0;" vertex="1" parent="l3kT8346K-ePLgC5lq8R-86">
          <mxGeometry y="90" width="400" height="30" as="geometry" />
        </mxCell>
        <mxCell id="l3kT8346K-ePLgC5lq8R-89" value="Introduction to Julia" style="text;strokeColor=#56517e;fillColor=#d0cee2;align=left;verticalAlign=middle;spacingLeft=4;spacingRight=4;overflow=hidden;points=[[0,0.5],[1,0.5]];portConstraint=eastwest;rotatable=0;whiteSpace=wrap;html=1;fontSize=12;rounded=0;" vertex="1" parent="l3kT8346K-ePLgC5lq8R-86">
          <mxGeometry y="120" width="400" height="30" as="geometry" />
        </mxCell>
        <mxCell id="l3kT8346K-ePLgC5lq8R-90" value="Compiled languages and creating libraries" style="text;strokeColor=#b46504;fillColor=#fad7ac;align=left;verticalAlign=middle;spacingLeft=4;spacingRight=4;overflow=hidden;points=[[0,0.5],[1,0.5]];portConstraint=eastwest;rotatable=0;whiteSpace=wrap;html=1;fontSize=12;rounded=0;" vertex="1" parent="l3kT8346K-ePLgC5lq8R-86">
          <mxGeometry y="150" width="400" height="30" as="geometry" />
        </mxCell>
        <mxCell id="l3kT8346K-ePLgC5lq8R-93" value="Tools" style="swimlane;fontStyle=0;childLayout=stackLayout;horizontal=1;startSize=30;horizontalStack=0;resizeParent=1;resizeParentMax=0;resizeLast=0;collapsible=1;marginBottom=0;whiteSpace=wrap;html=1;fontSize=12;fillColor=#d80073;fontColor=#ffffff;strokeColor=#A50040;rounded=0;" vertex="1" parent="1">
          <mxGeometry x="1090" y="260" width="100" height="90" as="geometry" />
        </mxCell>
        <mxCell id="l3kT8346K-ePLgC5lq8R-94" value="Creation" style="text;strokeColor=none;fillColor=default;align=left;verticalAlign=middle;spacingLeft=4;spacingRight=4;overflow=hidden;points=[[0,0.5],[1,0.5]];portConstraint=eastwest;rotatable=0;whiteSpace=wrap;html=1;fontSize=12;rounded=0;" vertex="1" parent="l3kT8346K-ePLgC5lq8R-93">
          <mxGeometry y="30" width="100" height="30" as="geometry" />
        </mxCell>
        <mxCell id="l3kT8346K-ePLgC5lq8R-95" value="Programming" style="text;strokeColor=none;fillColor=default;align=left;verticalAlign=middle;spacingLeft=4;spacingRight=4;overflow=hidden;points=[[0,0.5],[1,0.5]];portConstraint=eastwest;rotatable=0;whiteSpace=wrap;html=1;fontSize=12;rounded=0;" vertex="1" parent="l3kT8346K-ePLgC5lq8R-93">
          <mxGeometry y="60" width="100" height="30" as="geometry" />
        </mxCell>
        <mxCell id="l3kT8346K-ePLgC5lq8R-98" value="Creation" style="swimlane;fontStyle=0;childLayout=stackLayout;horizontal=1;startSize=30;horizontalStack=0;resizeParent=1;resizeParentMax=0;resizeLast=0;collapsible=1;marginBottom=0;whiteSpace=wrap;html=1;fontSize=12;fillColor=#6d8764;fontColor=#ffffff;strokeColor=#3A5431;rounded=0;" vertex="1" parent="1">
          <mxGeometry x="970" y="360.14" width="140" height="150" as="geometry" />
        </mxCell>
        <mxCell id="l3kT8346K-ePLgC5lq8R-99" value="Jupyter Notebook" style="text;strokeColor=none;fillColor=default;align=left;verticalAlign=middle;spacingLeft=4;spacingRight=4;overflow=hidden;points=[[0,0.5],[1,0.5]];portConstraint=eastwest;rotatable=0;whiteSpace=wrap;html=1;fontSize=12;rounded=0;" vertex="1" parent="l3kT8346K-ePLgC5lq8R-98">
          <mxGeometry y="30" width="140" height="30" as="geometry" />
        </mxCell>
        <mxCell id="l3kT8346K-ePLgC5lq8R-100" value="Jupyter Book" style="text;strokeColor=none;fillColor=default;align=left;verticalAlign=middle;spacingLeft=4;spacingRight=4;overflow=hidden;points=[[0,0.5],[1,0.5]];portConstraint=eastwest;rotatable=0;whiteSpace=wrap;html=1;fontSize=12;rounded=0;" vertex="1" parent="l3kT8346K-ePLgC5lq8R-98">
          <mxGeometry y="60" width="140" height="30" as="geometry" />
        </mxCell>
        <mxCell id="l3kT8346K-ePLgC5lq8R-101" value="Jupytext" style="text;strokeColor=none;fillColor=default;align=left;verticalAlign=middle;spacingLeft=4;spacingRight=4;overflow=hidden;points=[[0,0.5],[1,0.5]];portConstraint=eastwest;rotatable=0;whiteSpace=wrap;html=1;fontSize=12;rounded=0;" vertex="1" parent="l3kT8346K-ePLgC5lq8R-98">
          <mxGeometry y="90" width="140" height="30" as="geometry" />
        </mxCell>
        <mxCell id="l3kT8346K-ePLgC5lq8R-110" value="JabRef" style="text;strokeColor=none;fillColor=default;align=left;verticalAlign=middle;spacingLeft=4;spacingRight=4;overflow=hidden;points=[[0,0.5],[1,0.5]];portConstraint=eastwest;rotatable=0;whiteSpace=wrap;html=1;fontSize=12;rounded=0;" vertex="1" parent="l3kT8346K-ePLgC5lq8R-98">
          <mxGeometry y="120" width="140" height="30" as="geometry" />
        </mxCell>
        <mxCell id="l3kT8346K-ePLgC5lq8R-102" style="edgeStyle=orthogonalEdgeStyle;rounded=0;orthogonalLoop=1;jettySize=auto;html=1;entryX=0.5;entryY=0;entryDx=0;entryDy=0;fontSize=12;" edge="1" parent="1" source="l3kT8346K-ePLgC5lq8R-94" target="l3kT8346K-ePLgC5lq8R-98">
          <mxGeometry relative="1" as="geometry" />
        </mxCell>
        <mxCell id="l3kT8346K-ePLgC5lq8R-103" value="Programming" style="swimlane;fontStyle=0;childLayout=stackLayout;horizontal=1;startSize=30;horizontalStack=0;resizeParent=1;resizeParentMax=0;resizeLast=0;collapsible=1;marginBottom=0;whiteSpace=wrap;html=1;fontSize=12;fillColor=#f0a30a;fontColor=#000000;strokeColor=#BD7000;rounded=0;" vertex="1" parent="1">
          <mxGeometry x="1280" y="245" width="140" height="180" as="geometry" />
        </mxCell>
        <mxCell id="l3kT8346K-ePLgC5lq8R-104" value="Python" style="text;strokeColor=none;fillColor=default;align=left;verticalAlign=middle;spacingLeft=4;spacingRight=4;overflow=hidden;points=[[0,0.5],[1,0.5]];portConstraint=eastwest;rotatable=0;whiteSpace=wrap;html=1;fontSize=12;rounded=0;" vertex="1" parent="l3kT8346K-ePLgC5lq8R-103">
          <mxGeometry y="30" width="140" height="30" as="geometry" />
        </mxCell>
        <mxCell id="l3kT8346K-ePLgC5lq8R-105" value="Julia" style="text;strokeColor=none;fillColor=default;align=left;verticalAlign=middle;spacingLeft=4;spacingRight=4;overflow=hidden;points=[[0,0.5],[1,0.5]];portConstraint=eastwest;rotatable=0;whiteSpace=wrap;html=1;fontSize=12;rounded=0;" vertex="1" parent="l3kT8346K-ePLgC5lq8R-103">
          <mxGeometry y="60" width="140" height="30" as="geometry" />
        </mxCell>
        <mxCell id="l3kT8346K-ePLgC5lq8R-106" value="C++ compiler" style="text;strokeColor=none;fillColor=default;align=left;verticalAlign=middle;spacingLeft=4;spacingRight=4;overflow=hidden;points=[[0,0.5],[1,0.5]];portConstraint=eastwest;rotatable=0;whiteSpace=wrap;html=1;fontSize=12;rounded=0;" vertex="1" parent="l3kT8346K-ePLgC5lq8R-103">
          <mxGeometry y="90" width="140" height="30" as="geometry" />
        </mxCell>
        <mxCell id="l3kT8346K-ePLgC5lq8R-107" value="Fortran compiler" style="text;strokeColor=none;fillColor=default;align=left;verticalAlign=middle;spacingLeft=4;spacingRight=4;overflow=hidden;points=[[0,0.5],[1,0.5]];portConstraint=eastwest;rotatable=0;whiteSpace=wrap;html=1;fontSize=12;rounded=0;" vertex="1" parent="l3kT8346K-ePLgC5lq8R-103">
          <mxGeometry y="120" width="140" height="30" as="geometry" />
        </mxCell>
        <mxCell id="l3kT8346K-ePLgC5lq8R-108" value="OpenFOAM" style="text;strokeColor=none;fillColor=default;align=left;verticalAlign=middle;spacingLeft=4;spacingRight=4;overflow=hidden;points=[[0,0.5],[1,0.5]];portConstraint=eastwest;rotatable=0;whiteSpace=wrap;html=1;fontSize=12;rounded=0;" vertex="1" parent="l3kT8346K-ePLgC5lq8R-103">
          <mxGeometry y="150" width="140" height="30" as="geometry" />
        </mxCell>
        <mxCell id="l3kT8346K-ePLgC5lq8R-109" style="edgeStyle=orthogonalEdgeStyle;rounded=0;orthogonalLoop=1;jettySize=auto;html=1;fontSize=12;" edge="1" parent="1" source="l3kT8346K-ePLgC5lq8R-95" target="l3kT8346K-ePLgC5lq8R-103">
          <mxGeometry relative="1" as="geometry" />
        </mxCell>
        <mxCell id="l3kT8346K-ePLgC5lq8R-118" style="edgeStyle=orthogonalEdgeStyle;rounded=0;orthogonalLoop=1;jettySize=auto;html=1;entryX=0.5;entryY=0;entryDx=0;entryDy=0;fontSize=12;" edge="1" parent="1" source="l3kT8346K-ePLgC5lq8R-117" target="l3kT8346K-ePLgC5lq8R-17">
          <mxGeometry relative="1" as="geometry" />
        </mxCell>
        <mxCell id="l3kT8346K-ePLgC5lq8R-117" value="Part 1 will be the last to be written! It is much more logical to first provide all the content to have a better view of the introductory tooling that needs to be introduced," style="shape=process;whiteSpace=wrap;html=1;backgroundOutline=1;fontSize=12;fillColor=#a20025;fontColor=#ffffff;strokeColor=#6F0000;rounded=0;" vertex="1" parent="1">
          <mxGeometry x="180" y="165" width="410" height="80" as="geometry" />
        </mxCell>
      </root>
    </mxGraphModel>
  </diagram>
</mxfile>
